<mxfile host="app.diagrams.net" modified="2022-06-14T15:04:01.772Z" agent="5.0 (Windows NT 10.0; Win64; x64) AppleWebKit/537.36 (KHTML, like Gecko) Chrome/102.0.5005.63 Safari/537.36" etag="_579w2Oqr0X9kSf_Lp_G" version="20.0.1" type="github" pages="3">
  <diagram id="9OHrjUB7EPSafFOiDkMM" name="Page-1">
    <mxGraphModel dx="1268" dy="511" grid="1" gridSize="10" guides="1" tooltips="1" connect="1" arrows="1" fold="1" page="1" pageScale="1" pageWidth="413" pageHeight="291" math="0" shadow="0">
      <root>
        <mxCell id="0" />
        <mxCell id="1" parent="0" />
        <mxCell id="thgn2GTYaVX-usz1cNna-1" value="Apprenant" style="shape=folder;fontStyle=1;spacingTop=10;tabWidth=40;tabHeight=14;tabPosition=left;html=1;fillColor=#fff2cc;strokeColor=#d6b656;" vertex="1" parent="1">
          <mxGeometry x="-220" y="60" width="120" height="120" as="geometry" />
        </mxCell>
        <mxCell id="thgn2GTYaVX-usz1cNna-2" value="Suivi" style="shape=folder;fontStyle=1;spacingTop=10;tabWidth=40;tabHeight=14;tabPosition=left;html=1;fillColor=#fff2cc;strokeColor=#d6b656;" vertex="1" parent="1">
          <mxGeometry x="120" y="60" width="140" height="120" as="geometry" />
        </mxCell>
        <mxCell id="thgn2GTYaVX-usz1cNna-3" value="Alerte" style="shape=folder;fontStyle=1;spacingTop=10;tabWidth=40;tabHeight=14;tabPosition=left;html=1;fillColor=#fff2cc;strokeColor=#d6b656;" vertex="1" parent="1">
          <mxGeometry x="-40" y="300" width="160" height="120" as="geometry" />
        </mxCell>
        <mxCell id="thgn2GTYaVX-usz1cNna-4" value="&amp;lt;&amp;lt;Import&amp;gt;&amp;gt;" style="html=1;verticalAlign=bottom;endArrow=open;dashed=1;endSize=8;rounded=0;exitX=0;exitY=0;exitDx=0;exitDy=67;exitPerimeter=0;entryX=0;entryY=0;entryDx=120;entryDy=67;entryPerimeter=0;" edge="1" parent="1" source="thgn2GTYaVX-usz1cNna-2" target="thgn2GTYaVX-usz1cNna-1">
          <mxGeometry x="0.0435" y="-7" relative="1" as="geometry">
            <mxPoint x="240" y="280" as="sourcePoint" />
            <mxPoint x="210" y="110" as="targetPoint" />
            <mxPoint as="offset" />
          </mxGeometry>
        </mxCell>
        <mxCell id="thgn2GTYaVX-usz1cNna-5" value="&amp;lt;&amp;lt;Access&amp;gt;&amp;gt;" style="html=1;verticalAlign=bottom;endArrow=open;dashed=1;endSize=8;rounded=0;exitX=0.888;exitY=1.01;exitDx=0;exitDy=0;exitPerimeter=0;entryX=0.515;entryY=0.149;entryDx=0;entryDy=0;entryPerimeter=0;" edge="1" parent="1" source="thgn2GTYaVX-usz1cNna-1" target="thgn2GTYaVX-usz1cNna-3">
          <mxGeometry x="-0.2231" y="-34" relative="1" as="geometry">
            <mxPoint x="240" y="280" as="sourcePoint" />
            <mxPoint x="160" y="280" as="targetPoint" />
            <mxPoint as="offset" />
          </mxGeometry>
        </mxCell>
      </root>
    </mxGraphModel>
  </diagram>
  <diagram id="klNdXatUE3-bD28sFmdP" name="Page-2">
    <mxGraphModel dx="2238" dy="1434" grid="1" gridSize="10" guides="1" tooltips="1" connect="1" arrows="1" fold="1" page="1" pageScale="1" pageWidth="413" pageHeight="291" math="0" shadow="0">
      <root>
        <mxCell id="0" />
        <mxCell id="1" parent="0" />
        <mxCell id="YqSGfuG33gcj7VB2LAGk-1" value="" style="shape=umlActor;verticalLabelPosition=bottom;verticalAlign=top;html=1;outlineConnect=0;" vertex="1" parent="1">
          <mxGeometry x="-140" y="-220" width="30" height="60" as="geometry" />
        </mxCell>
        <mxCell id="YqSGfuG33gcj7VB2LAGk-2" value="" style="swimlane;startSize=0;" vertex="1" parent="1">
          <mxGeometry x="-60" y="-436" width="620" height="727" as="geometry" />
        </mxCell>
        <mxCell id="YqSGfuG33gcj7VB2LAGk-7" value="Ajouter une promo" style="ellipse;whiteSpace=wrap;html=1;fillColor=#fff2cc;strokeColor=#d6b656;" vertex="1" parent="YqSGfuG33gcj7VB2LAGk-2">
          <mxGeometry x="70" y="40" width="140" height="50" as="geometry" />
        </mxCell>
        <mxCell id="YqSGfuG33gcj7VB2LAGk-6" value="Ajouter un apprenant" style="ellipse;whiteSpace=wrap;html=1;fillColor=#fff2cc;strokeColor=#d6b656;" vertex="1" parent="YqSGfuG33gcj7VB2LAGk-2">
          <mxGeometry x="100" y="130" width="147" height="50" as="geometry" />
        </mxCell>
        <mxCell id="YqSGfuG33gcj7VB2LAGk-5" value="Modifier un apprenant" style="ellipse;whiteSpace=wrap;html=1;fillColor=#fff2cc;strokeColor=#d6b656;" vertex="1" parent="YqSGfuG33gcj7VB2LAGk-2">
          <mxGeometry x="110" y="206" width="140" height="50" as="geometry" />
        </mxCell>
        <mxCell id="YqSGfuG33gcj7VB2LAGk-4" value="Supprimer un apprenant" style="ellipse;whiteSpace=wrap;html=1;fillColor=#fff2cc;strokeColor=#d6b656;" vertex="1" parent="YqSGfuG33gcj7VB2LAGk-2">
          <mxGeometry x="70" y="310" width="140" height="50" as="geometry" />
        </mxCell>
        <mxCell id="YqSGfuG33gcj7VB2LAGk-8" value="Connexion" style="ellipse;whiteSpace=wrap;html=1;fillColor=#fff2cc;strokeColor=#d6b656;" vertex="1" parent="YqSGfuG33gcj7VB2LAGk-2">
          <mxGeometry x="320" y="56" width="140" height="50" as="geometry" />
        </mxCell>
        <mxCell id="YqSGfuG33gcj7VB2LAGk-9" value="&amp;lt;&amp;lt;include&amp;gt;&amp;gt;" style="endArrow=open;endSize=12;dashed=1;html=1;rounded=0;exitX=0.93;exitY=0.902;exitDx=0;exitDy=0;exitPerimeter=0;entryX=0.06;entryY=0.258;entryDx=0;entryDy=0;entryPerimeter=0;" edge="1" parent="YqSGfuG33gcj7VB2LAGk-2" source="YqSGfuG33gcj7VB2LAGk-7" target="YqSGfuG33gcj7VB2LAGk-8">
          <mxGeometry x="0.2486" y="14" width="160" relative="1" as="geometry">
            <mxPoint x="150" y="250" as="sourcePoint" />
            <mxPoint x="310" y="250" as="targetPoint" />
            <Array as="points" />
            <mxPoint as="offset" />
          </mxGeometry>
        </mxCell>
        <mxCell id="YqSGfuG33gcj7VB2LAGk-10" value="&amp;lt;&amp;lt;include&amp;gt;&amp;gt;" style="endArrow=open;endSize=12;dashed=1;html=1;rounded=0;entryX=0.314;entryY=0.865;entryDx=0;entryDy=0;entryPerimeter=0;exitX=0.973;exitY=0.362;exitDx=0;exitDy=0;exitPerimeter=0;" edge="1" parent="YqSGfuG33gcj7VB2LAGk-2" source="YqSGfuG33gcj7VB2LAGk-6" target="YqSGfuG33gcj7VB2LAGk-8">
          <mxGeometry x="-0.1175" y="14" width="160" relative="1" as="geometry">
            <mxPoint x="150" y="250" as="sourcePoint" />
            <mxPoint x="310" y="250" as="targetPoint" />
            <Array as="points" />
            <mxPoint as="offset" />
          </mxGeometry>
        </mxCell>
        <mxCell id="YqSGfuG33gcj7VB2LAGk-11" value="&amp;lt;&amp;lt;extends&amp;gt;&amp;gt;" style="endArrow=open;endSize=12;dashed=1;html=1;rounded=0;exitX=0.621;exitY=1.013;exitDx=0;exitDy=0;exitPerimeter=0;entryX=1;entryY=0.5;entryDx=0;entryDy=0;" edge="1" parent="YqSGfuG33gcj7VB2LAGk-2" source="YqSGfuG33gcj7VB2LAGk-8" target="YqSGfuG33gcj7VB2LAGk-5">
          <mxGeometry x="-0.0241" y="-2" width="160" relative="1" as="geometry">
            <mxPoint x="150" y="230" as="sourcePoint" />
            <mxPoint x="310" y="230" as="targetPoint" />
            <mxPoint x="1" as="offset" />
          </mxGeometry>
        </mxCell>
        <mxCell id="YqSGfuG33gcj7VB2LAGk-12" value="&amp;lt;&amp;lt;extends &amp;gt;&amp;gt;" style="endArrow=open;endSize=12;dashed=1;html=1;rounded=0;exitX=0.758;exitY=0.924;exitDx=0;exitDy=0;exitPerimeter=0;entryX=1;entryY=0.5;entryDx=0;entryDy=0;" edge="1" parent="YqSGfuG33gcj7VB2LAGk-2" source="YqSGfuG33gcj7VB2LAGk-8" target="YqSGfuG33gcj7VB2LAGk-4">
          <mxGeometry x="0.3594" y="18" width="160" relative="1" as="geometry">
            <mxPoint x="150" y="110" as="sourcePoint" />
            <mxPoint x="310" y="110" as="targetPoint" />
            <mxPoint as="offset" />
          </mxGeometry>
        </mxCell>
        <mxCell id="YqSGfuG33gcj7VB2LAGk-13" value="Consulter le cv&lt;br&gt;d&#39;un apprenant" style="ellipse;whiteSpace=wrap;html=1;fillColor=#fff2cc;strokeColor=#d6b656;" vertex="1" parent="YqSGfuG33gcj7VB2LAGk-2">
          <mxGeometry x="70" y="390" width="140" height="50" as="geometry" />
        </mxCell>
        <mxCell id="YqSGfuG33gcj7VB2LAGk-14" value="&amp;lt;&amp;lt;include&amp;gt;&amp;gt;" style="endArrow=open;endSize=12;dashed=1;html=1;rounded=0;exitX=0.79;exitY=0.91;exitDx=0;exitDy=0;exitPerimeter=0;entryX=1;entryY=0.5;entryDx=0;entryDy=0;" edge="1" parent="YqSGfuG33gcj7VB2LAGk-2" source="YqSGfuG33gcj7VB2LAGk-8" target="YqSGfuG33gcj7VB2LAGk-13">
          <mxGeometry x="-0.4776" y="4" width="160" relative="1" as="geometry">
            <mxPoint x="150" y="260" as="sourcePoint" />
            <mxPoint x="430" y="110" as="targetPoint" />
            <Array as="points">
              <mxPoint x="430" y="415" />
            </Array>
            <mxPoint as="offset" />
          </mxGeometry>
        </mxCell>
        <mxCell id="YqSGfuG33gcj7VB2LAGk-15" value="Voir la liste des&amp;nbsp;&lt;br&gt;entreprises" style="ellipse;whiteSpace=wrap;html=1;fillColor=#fff2cc;strokeColor=#d6b656;" vertex="1" parent="YqSGfuG33gcj7VB2LAGk-2">
          <mxGeometry x="70" y="480" width="140" height="50" as="geometry" />
        </mxCell>
        <mxCell id="YqSGfuG33gcj7VB2LAGk-16" value="&amp;lt;&amp;lt;include&amp;gt;&amp;gt;" style="endArrow=open;endSize=12;dashed=1;html=1;rounded=0;exitX=0.578;exitY=1.102;exitDx=0;exitDy=0;exitPerimeter=0;entryX=0.946;entryY=0.695;entryDx=0;entryDy=0;entryPerimeter=0;" edge="1" parent="YqSGfuG33gcj7VB2LAGk-2" source="YqSGfuG33gcj7VB2LAGk-8" target="YqSGfuG33gcj7VB2LAGk-15">
          <mxGeometry x="0.6427" y="-2" width="160" relative="1" as="geometry">
            <mxPoint x="150" y="550" as="sourcePoint" />
            <mxPoint x="310" y="550" as="targetPoint" />
            <Array as="points">
              <mxPoint x="400" y="510" />
            </Array>
            <mxPoint as="offset" />
          </mxGeometry>
        </mxCell>
        <mxCell id="YqSGfuG33gcj7VB2LAGk-17" value="Exporter un rapport de suivi .En pdf&amp;nbsp;" style="ellipse;whiteSpace=wrap;html=1;fillColor=#fff2cc;strokeColor=#d6b656;" vertex="1" parent="YqSGfuG33gcj7VB2LAGk-2">
          <mxGeometry x="70" y="581" width="140" height="50" as="geometry" />
        </mxCell>
        <mxCell id="YqSGfuG33gcj7VB2LAGk-18" value="&amp;lt;&amp;lt;include&amp;gt;&amp;gt;" style="endArrow=open;endSize=12;dashed=1;html=1;rounded=0;exitX=0.391;exitY=0.021;exitDx=0;exitDy=0;exitPerimeter=0;entryX=0.391;entryY=0.917;entryDx=0;entryDy=0;entryPerimeter=0;" edge="1" parent="YqSGfuG33gcj7VB2LAGk-2" source="YqSGfuG33gcj7VB2LAGk-6" target="YqSGfuG33gcj7VB2LAGk-7">
          <mxGeometry x="0.4708" y="48" width="160" relative="1" as="geometry">
            <mxPoint x="150" y="260" as="sourcePoint" />
            <mxPoint x="310" y="260" as="targetPoint" />
            <Array as="points" />
            <mxPoint as="offset" />
          </mxGeometry>
        </mxCell>
        <mxCell id="YqSGfuG33gcj7VB2LAGk-28" value="&amp;lt;&amp;lt;include&amp;gt;&amp;gt;" style="endArrow=open;endSize=12;dashed=1;html=1;rounded=0;entryX=0.983;entryY=0.343;entryDx=0;entryDy=0;entryPerimeter=0;exitX=1;exitY=1;exitDx=0;exitDy=0;" edge="1" parent="YqSGfuG33gcj7VB2LAGk-2" source="YqSGfuG33gcj7VB2LAGk-8" target="YqSGfuG33gcj7VB2LAGk-17">
          <mxGeometry x="0.5821" y="-11" width="160" relative="1" as="geometry">
            <mxPoint x="420" y="126" as="sourcePoint" />
            <mxPoint x="220.00000000000006" y="575.65" as="targetPoint" />
            <Array as="points">
              <mxPoint x="440" y="596" />
            </Array>
            <mxPoint as="offset" />
          </mxGeometry>
        </mxCell>
        <mxCell id="YqSGfuG33gcj7VB2LAGk-29" value="Envoyer des sms,Email&lt;br&gt;aux apprenants en cas&amp;nbsp;&lt;br&gt;d&#39;opportunité" style="ellipse;whiteSpace=wrap;html=1;fillColor=#fff2cc;strokeColor=#d6b656;" vertex="1" parent="YqSGfuG33gcj7VB2LAGk-2">
          <mxGeometry x="70" y="646" width="140" height="70" as="geometry" />
        </mxCell>
        <mxCell id="YqSGfuG33gcj7VB2LAGk-30" value="&amp;lt;&amp;lt;include&amp;gt;&amp;gt;" style="endArrow=open;endSize=12;dashed=1;html=1;rounded=0;exitX=0.93;exitY=0.665;exitDx=0;exitDy=0;exitPerimeter=0;entryX=1.012;entryY=0.682;entryDx=0;entryDy=0;entryPerimeter=0;" edge="1" parent="YqSGfuG33gcj7VB2LAGk-2" source="YqSGfuG33gcj7VB2LAGk-8" target="YqSGfuG33gcj7VB2LAGk-29">
          <mxGeometry x="0.6427" y="-2" width="160" relative="1" as="geometry">
            <mxPoint x="450.9200000000001" y="155.10000000000002" as="sourcePoint" />
            <mxPoint x="252.44000000000005" y="534.75" as="targetPoint" />
            <Array as="points">
              <mxPoint x="450" y="694" />
            </Array>
            <mxPoint as="offset" />
          </mxGeometry>
        </mxCell>
        <mxCell id="YqSGfuG33gcj7VB2LAGk-3" value="Administrateur" style="text;html=1;align=center;verticalAlign=middle;resizable=0;points=[];autosize=1;strokeColor=none;fillColor=none;" vertex="1" parent="1">
          <mxGeometry x="-170" y="-145" width="90" height="20" as="geometry" />
        </mxCell>
        <mxCell id="YqSGfuG33gcj7VB2LAGk-20" value="" style="endArrow=none;html=1;edgeStyle=orthogonalEdgeStyle;rounded=0;entryX=0.041;entryY=0.754;entryDx=0;entryDy=0;entryPerimeter=0;exitX=0.5;exitY=0.5;exitDx=0;exitDy=0;exitPerimeter=0;" edge="1" parent="1" source="YqSGfuG33gcj7VB2LAGk-1" target="YqSGfuG33gcj7VB2LAGk-7">
          <mxGeometry relative="1" as="geometry">
            <mxPoint x="120" y="-180" as="sourcePoint" />
            <mxPoint x="280" y="-180" as="targetPoint" />
            <Array as="points">
              <mxPoint x="-10" y="-190" />
              <mxPoint x="-10" y="-354" />
              <mxPoint x="16" y="-354" />
            </Array>
          </mxGeometry>
        </mxCell>
        <mxCell id="YqSGfuG33gcj7VB2LAGk-23" value="" style="endArrow=none;html=1;edgeStyle=orthogonalEdgeStyle;rounded=0;entryX=0.057;entryY=0.717;entryDx=0;entryDy=0;entryPerimeter=0;exitX=0.5;exitY=0.5;exitDx=0;exitDy=0;exitPerimeter=0;" edge="1" parent="1" source="YqSGfuG33gcj7VB2LAGk-1" target="YqSGfuG33gcj7VB2LAGk-6">
          <mxGeometry relative="1" as="geometry">
            <mxPoint x="-115" y="-180" as="sourcePoint" />
            <mxPoint x="55.74000000000001" y="-352.29999999999995" as="targetPoint" />
            <Array as="points">
              <mxPoint x="-10" y="-190" />
              <mxPoint x="-10" y="-274" />
            </Array>
          </mxGeometry>
        </mxCell>
        <mxCell id="YqSGfuG33gcj7VB2LAGk-25" value="" style="endArrow=none;html=1;edgeStyle=orthogonalEdgeStyle;rounded=0;entryX=0.041;entryY=0.339;entryDx=0;entryDy=0;entryPerimeter=0;" edge="1" parent="1" target="YqSGfuG33gcj7VB2LAGk-5">
          <mxGeometry relative="1" as="geometry">
            <mxPoint x="-120" y="-180" as="sourcePoint" />
            <mxPoint x="65.74000000000001" y="-342.29999999999995" as="targetPoint" />
            <Array as="points">
              <mxPoint x="-120" y="-190" />
              <mxPoint x="-10" y="-190" />
              <mxPoint x="-10" y="-210" />
              <mxPoint x="46" y="-210" />
            </Array>
          </mxGeometry>
        </mxCell>
        <mxCell id="YqSGfuG33gcj7VB2LAGk-26" value="" style="endArrow=none;html=1;edgeStyle=orthogonalEdgeStyle;rounded=0;exitX=0.5;exitY=0.5;exitDx=0;exitDy=0;exitPerimeter=0;" edge="1" parent="1" source="YqSGfuG33gcj7VB2LAGk-1" target="YqSGfuG33gcj7VB2LAGk-4">
          <mxGeometry relative="1" as="geometry">
            <mxPoint x="-95" y="-160" as="sourcePoint" />
            <mxPoint x="75.74000000000001" y="-332.29999999999995" as="targetPoint" />
            <Array as="points">
              <mxPoint x="-10" y="-190" />
              <mxPoint x="-10" y="-119" />
            </Array>
          </mxGeometry>
        </mxCell>
        <mxCell id="YqSGfuG33gcj7VB2LAGk-27" value="" style="endArrow=none;html=1;edgeStyle=orthogonalEdgeStyle;rounded=0;exitX=0.5;exitY=0.5;exitDx=0;exitDy=0;exitPerimeter=0;" edge="1" parent="1" source="YqSGfuG33gcj7VB2LAGk-1" target="YqSGfuG33gcj7VB2LAGk-13">
          <mxGeometry relative="1" as="geometry">
            <mxPoint x="-85" y="-150" as="sourcePoint" />
            <mxPoint x="85.74000000000001" y="-322.29999999999995" as="targetPoint" />
            <Array as="points">
              <mxPoint x="-10" y="-190" />
              <mxPoint x="-10" y="-50" />
            </Array>
          </mxGeometry>
        </mxCell>
      </root>
    </mxGraphModel>
  </diagram>
  <diagram id="DCu8lPm0HPymp3LwxbeY" name="Page-3">
    <mxGraphModel dx="1480" dy="511" grid="1" gridSize="10" guides="1" tooltips="1" connect="1" arrows="1" fold="1" page="1" pageScale="1" pageWidth="413" pageHeight="291" math="0" shadow="0">
      <root>
        <mxCell id="0" />
        <mxCell id="1" parent="0" />
        <mxCell id="2s7DsnnI4ciTm8ieQaTC-1" value="Apprenant" style="shape=umlActor;verticalLabelPosition=bottom;verticalAlign=top;html=1;" vertex="1" parent="1">
          <mxGeometry x="-130" y="160" width="30" height="60" as="geometry" />
        </mxCell>
        <mxCell id="2s7DsnnI4ciTm8ieQaTC-2" value="Système" style="shape=umlFrame;whiteSpace=wrap;html=1;" vertex="1" parent="1">
          <mxGeometry x="-40" y="20" width="520" height="490" as="geometry" />
        </mxCell>
        <mxCell id="2s7DsnnI4ciTm8ieQaTC-3" value="Connexion" style="ellipse;whiteSpace=wrap;html=1;fillColor=#fff2cc;strokeColor=#d6b656;" vertex="1" parent="1">
          <mxGeometry x="290" y="70" width="140" height="50" as="geometry" />
        </mxCell>
        <mxCell id="2s7DsnnI4ciTm8ieQaTC-4" value="Uploader son CV" style="ellipse;whiteSpace=wrap;html=1;fillColor=#fff2cc;strokeColor=#d6b656;" vertex="1" parent="1">
          <mxGeometry x="10" y="70" width="140" height="60" as="geometry" />
        </mxCell>
      </root>
    </mxGraphModel>
  </diagram>
</mxfile>
